<svg width="34" height="35" viewBox="0 0 34 35" fill="none" xmlns="http://www.w3.org/2000/svg">
<path d="M23.4375 10.8125H18.75V9.25C18.75 7.5924 18.0915 6.00269 16.9194 4.83058C15.7473 3.65848 14.1576 3 12.5 3C10.8424 3 9.25268 3.65848 8.08058 4.83058C6.90848 6.00269 6.25 7.5924 6.25 9.25V10.8125H1.5625C1.1481 10.8125 0.750672 10.9771 0.457646 11.2701C0.16462 11.5632 0 11.9606 0 12.375V29.5625C0 30.8057 0.49386 31.998 1.37294 32.8771C2.25201 33.7561 3.4443 34.25 4.6875 34.25H20.3125C21.5557 34.25 22.748 33.7561 23.6271 32.8771C24.5061 31.998 25 30.8057 25 29.5625V12.375C25 11.9606 24.8354 11.5632 24.5424 11.2701C24.2493 10.9771 23.8519 10.8125 23.4375 10.8125ZM9.375 9.25C9.375 8.4212 9.70424 7.62634 10.2903 7.04029C10.8763 6.45424 11.6712 6.125 12.5 6.125C13.3288 6.125 14.1237 6.45424 14.7097 7.04029C15.2958 7.62634 15.625 8.4212 15.625 9.25V10.8125H9.375V9.25ZM21.875 29.5625C21.875 29.9769 21.7104 30.3743 21.4174 30.6674C21.1243 30.9604 20.7269 31.125 20.3125 31.125H4.6875C4.2731 31.125 3.87567 30.9604 3.58265 30.6674C3.28962 30.3743 3.125 29.9769 3.125 29.5625V13.9375H6.25V15.5C6.25 15.9144 6.41462 16.3118 6.70765 16.6049C7.00067 16.8979 7.3981 17.0625 7.8125 17.0625C8.2269 17.0625 8.62433 16.8979 8.91735 16.6049C9.21038 16.3118 9.375 15.9144 9.375 15.5V13.9375H15.625V15.5C15.625 15.9144 15.7896 16.3118 16.0826 16.6049C16.3757 16.8979 16.7731 17.0625 17.1875 17.0625C17.6019 17.0625 17.9993 16.8979 18.2924 16.6049C18.5854 16.3118 18.75 15.9144 18.75 15.5V13.9375H21.875V29.5625Z" fill="#F31D1D"/>
<ellipse cx="24.6207" cy="10" rx="8.62069" ry="10" fill="#A30F0F" fill-opacity="0.86"/>
<path d="M21.5781 9.7168C21.5781 10.4082 21.6328 11.0254 21.7422 11.5684C21.8477 12.1113 22.0195 12.5723 22.2578 12.9512C22.4922 13.3301 22.8008 13.6191 23.1836 13.8184C23.5664 14.0176 24.0312 14.1172 24.5781 14.1172C25.2656 14.1172 25.8301 13.9434 26.2715 13.5957C26.7129 13.2441 27.0391 12.7402 27.25 12.084C27.4609 11.4238 27.5664 10.6348 27.5664 9.7168C27.5664 8.79102 27.4707 8 27.2793 7.34375C27.084 6.68359 26.7676 6.17773 26.3301 5.82617C25.8926 5.47461 25.3086 5.29883 24.5781 5.29883C23.8945 5.29883 23.332 5.47461 22.8906 5.82617C22.4453 6.17383 22.1152 6.67773 21.9004 7.33789C21.6855 7.99414 21.5781 8.78711 21.5781 9.7168ZM25.7676 9.7168C25.7676 10.3691 25.7324 10.9141 25.6621 11.3516C25.5879 11.7852 25.4648 12.1113 25.293 12.3301C25.1211 12.5488 24.8828 12.6582 24.5781 12.6582C24.2773 12.6582 24.041 12.5508 23.8691 12.3359C23.6934 12.1172 23.5684 11.791 23.4941 11.3574C23.4199 10.9199 23.3828 10.373 23.3828 9.7168C23.3828 9.06445 23.4199 8.51953 23.4941 8.08203C23.5684 7.64453 23.6934 7.31641 23.8691 7.09766C24.041 6.875 24.2773 6.76367 24.5781 6.76367C24.8828 6.76367 25.1211 6.875 25.293 7.09766C25.4648 7.31641 25.5879 7.64453 25.6621 8.08203C25.7324 8.51953 25.7676 9.06445 25.7676 9.7168Z" fill="white"/>
</svg>
